<svg width="323" height="134" viewBox="0 0 323 134" fill="none" xmlns="http://www.w3.org/2000/svg">
<path d="M62.2 67.2V104H68.6V67.2H62.2ZM61 52C61 53.1733 61.4267 54.2133 62.28 55.12C63.1867 55.9733 64.2267 56.4 65.4 56.4C66.6267 56.4 67.6667 55.9733 68.52 55.12C69.3733 54.2133 69.8 53.1733 69.8 52C69.8 50.7733 69.3733 49.7333 68.52 48.88C67.6667 48.0267 66.6267 47.6 65.4 47.6C64.2267 47.6 63.1867 48.0267 62.28 48.88C61.4267 49.7333 61 50.7733 61 52ZM99.3012 74.24L102.821 68.96C101.861 67.9467 100.795 67.28 99.6213 66.96C98.5013 66.5867 97.2746 66.4 95.9413 66.4C94.5546 66.4 93.1679 66.8533 91.7813 67.76C90.4479 68.6667 89.2479 69.8933 88.1813 71.44V67.2H81.7813V104H88.1813V81.6C88.1813 78.9333 88.6079 76.7467 89.4613 75.04C90.3146 73.28 91.9413 72.4 94.3413 72.4C95.4079 72.4 96.2879 72.56 96.9813 72.88C97.6746 73.1467 98.4479 73.6 99.3012 74.24ZM111.391 87.2H140.351C140.405 86.88 140.431 86.56 140.431 86.24C140.431 85.92 140.431 85.6 140.431 85.28C140.431 81.3867 139.711 78.0533 138.271 75.28C136.831 72.4533 134.805 70.2667 132.191 68.72C129.578 67.1733 126.538 66.4 123.071 66.4C119.925 66.4 117.071 67.04 114.511 68.32C112.005 69.6 109.951 71.3867 108.351 73.68C106.751 75.9733 105.685 78.64 105.151 81.68C105.045 82.32 104.965 82.96 104.911 83.6C104.858 84.24 104.831 84.9067 104.831 85.6C104.831 89.28 105.578 92.5867 107.071 95.52C108.618 98.4 110.698 100.667 113.311 102.32C115.978 103.973 118.965 104.8 122.271 104.8C125.471 104.8 128.138 104.427 130.271 103.68C132.405 102.88 134.218 101.787 135.711 100.4C137.205 98.96 138.565 97.3067 139.791 95.44L134.591 92.16C133.365 94.1333 131.791 95.7333 129.871 96.96C128.005 98.1867 125.738 98.8 123.071 98.8C119.711 98.8 116.991 97.8133 114.911 95.84C112.831 93.8133 111.658 90.9333 111.391 87.2ZM111.551 81.76C111.871 78.7733 113.125 76.4 115.311 74.64C117.551 72.88 120.138 72 123.071 72C126.271 72 128.725 72.9067 130.431 74.72C132.138 76.5333 133.151 78.88 133.471 81.76H111.551ZM150.243 91.04L145.203 94.16C146.59 97.1467 148.616 99.68 151.283 101.76C153.95 103.787 156.99 104.8 160.403 104.8C163.976 104.8 166.963 103.92 169.363 102.16C171.816 100.4 173.043 97.5467 173.043 93.6C173.043 91.52 172.563 89.7867 171.603 88.4C170.643 87.0133 169.39 85.84 167.843 84.88C166.296 83.92 164.643 83.0933 162.883 82.4C161.55 81.8133 160.163 81.28 158.723 80.8C157.336 80.2667 156.163 79.6533 155.203 78.96C154.243 78.2133 153.763 77.2533 153.763 76.08C153.763 74.64 154.323 73.6533 155.443 73.12C156.563 72.5333 157.923 72.24 159.523 72.24C161.016 72.24 162.51 72.72 164.003 73.68C165.55 74.5867 166.75 75.6533 167.603 76.88L172.723 73.6C171.603 71.5733 169.843 69.8667 167.443 68.48C165.043 67.0933 162.376 66.4 159.443 66.4C157.47 66.4 155.576 66.7467 153.763 67.44C151.95 68.1333 150.456 69.2267 149.283 70.72C148.11 72.16 147.523 74.0267 147.523 76.32C147.523 78.6133 148.056 80.4267 149.123 81.76C150.19 83.0933 151.523 84.16 153.123 84.96C154.776 85.7067 156.43 86.4267 158.083 87.12C159.523 87.6533 160.856 88.24 162.083 88.88C163.363 89.52 164.403 90.2667 165.203 91.12C166.003 91.9733 166.403 93.04 166.403 94.32C166.403 95.8667 165.816 97.0133 164.643 97.76C163.523 98.4533 162.11 98.8 160.403 98.8C158.643 98.8 156.83 98.08 154.963 96.64C153.096 95.1467 151.523 93.28 150.243 91.04ZM184.749 85.6C184.749 83.04 185.282 80.7733 186.349 78.8C187.469 76.7733 188.962 75.2 190.829 74.08C192.749 72.96 194.909 72.4 197.309 72.4C199.709 72.4 201.842 72.96 203.709 74.08C205.629 75.2 207.122 76.7733 208.189 78.8C209.309 80.7733 209.869 83.04 209.869 85.6C209.869 88.16 209.309 90.4267 208.189 92.4C207.122 94.3733 205.629 95.9467 203.709 97.12C201.842 98.24 199.709 98.8 197.309 98.8C194.909 98.8 192.749 98.24 190.829 97.12C188.962 95.9467 187.469 94.3733 186.349 92.4C185.282 90.4267 184.749 88.16 184.749 85.6ZM178.269 85.6C178.269 89.28 179.095 92.5867 180.749 95.52C182.455 98.4 184.749 100.667 187.629 102.32C190.509 103.973 193.735 104.8 197.309 104.8C200.935 104.8 204.162 103.973 206.989 102.32C209.869 100.667 212.135 98.4 213.789 95.52C215.495 92.5867 216.349 89.28 216.349 85.6C216.349 81.8667 215.495 78.56 213.789 75.68C212.135 72.8 209.869 70.5333 206.989 68.88C204.162 67.2267 200.935 66.4 197.309 66.4C193.735 66.4 190.509 67.2267 187.629 68.88C184.749 70.5333 182.455 72.8 180.749 75.68C179.095 78.56 178.269 81.8667 178.269 85.6ZM275.541 80.8C275.541 76.0533 274.501 72.48 272.421 70.08C270.394 67.6267 267.487 66.4 263.701 66.4C261.247 66.4 259.034 67.0133 257.061 68.24C255.087 69.4667 253.514 71.1467 252.341 73.28C250.581 68.6933 247.034 66.4 241.701 66.4C239.407 66.4 237.407 66.96 235.701 68.08C233.994 69.2 232.607 70.6933 231.541 72.56V67.2H225.141V104H231.541V81.6C231.541 78.9333 232.261 76.7467 233.701 75.04C235.194 73.28 237.327 72.4 240.101 72.4C242.714 72.4 244.527 73.1733 245.541 74.72C246.607 76.2667 247.141 78.56 247.141 81.6V104H253.541V81.6C253.541 78.9333 254.261 76.7467 255.701 75.04C257.194 73.28 259.327 72.4 262.101 72.4C264.714 72.4 266.527 73.1733 267.541 74.72C268.607 76.2667 269.141 78.56 269.141 81.6V104H275.541V80.8ZM290.923 87.2H319.883C319.936 86.88 319.963 86.56 319.963 86.24C319.963 85.92 319.963 85.6 319.963 85.28C319.963 81.3867 319.243 78.0533 317.803 75.28C316.363 72.4533 314.336 70.2667 311.723 68.72C309.109 67.1733 306.069 66.4 302.603 66.4C299.456 66.4 296.603 67.04 294.043 68.32C291.536 69.6 289.483 71.3867 287.883 73.68C286.283 75.9733 285.216 78.64 284.683 81.68C284.576 82.32 284.496 82.96 284.443 83.6C284.389 84.24 284.363 84.9067 284.363 85.6C284.363 89.28 285.109 92.5867 286.603 95.52C288.149 98.4 290.229 100.667 292.843 102.32C295.509 103.973 298.496 104.8 301.803 104.8C305.003 104.8 307.669 104.427 309.803 103.68C311.936 102.88 313.749 101.787 315.243 100.4C316.736 98.96 318.096 97.3067 319.323 95.44L314.123 92.16C312.896 94.1333 311.323 95.7333 309.403 96.96C307.536 98.1867 305.269 98.8 302.603 98.8C299.243 98.8 296.523 97.8133 294.443 95.84C292.363 93.8133 291.189 90.9333 290.923 87.2ZM291.083 81.76C291.403 78.7733 292.656 76.4 294.843 74.64C297.083 72.88 299.669 72 302.603 72C305.803 72 308.256 72.9067 309.963 74.72C311.669 76.5333 312.683 78.88 313.003 81.76H291.083Z" fill="#F5F5F5"/>
<path d="M55 12H15" stroke="#FBCB2B" stroke-width="10" stroke-linecap="round" stroke-linejoin="round"/>
<path d="M15 12V102" stroke="#FBA50E" stroke-width="10" stroke-linecap="round" stroke-linejoin="round"/>
<path d="M5 57H40" stroke="#F5820A" stroke-width="10" stroke-linecap="round" stroke-linejoin="round"/>
</svg>
