<?xml version="1.0" encoding="UTF-8" standalone="no"?>
<!DOCTYPE svg PUBLIC "-//W3C//DTD SVG 1.1//EN" "http://www.w3.org/Graphics/SVG/1.1/DTD/svg11.dtd">
<svg width="100%" height="100%" viewBox="0 0 600 245" version="1.1" xmlns="http://www.w3.org/2000/svg" xmlns:xlink="http://www.w3.org/1999/xlink" xml:space="preserve" xmlns:serif="http://www.serif.com/" style="fill-rule:evenodd;clip-rule:evenodd;stroke-linecap:round;stroke-linejoin:round;stroke-miterlimit:1.5;">
    <g transform="matrix(1,0,0,1,-14.5015,-2.82584)">
        <path d="M125.589,37.078L41.688,37.078" style="fill:none;stroke:rgb(251,203,43);stroke-width:16.67px;"/>
    </g>
    <g transform="matrix(1,0,0,1,-24.389,-2.48043)">
        <path d="M51.575,36.732L51.575,203.428" style="fill:none;stroke:rgb(251,165,14);stroke-width:16.67px;"/>
    </g>
    <g transform="matrix(1.66075,0,0,1,-89.2369,-9.84427)">
        <path d="M100.062,122.5L70.103,122.5" style="fill:none;stroke:rgb(245,130,10);stroke-width:12.16px;"/>
    </g>
    <g transform="matrix(2.97281,0,0,2.97281,-425.913,78.098)">
        <path d="M174.853,21.121L174.853,44.121L178.853,44.121L178.853,21.121L174.853,21.121ZM174.103,11.621C174.103,12.354 174.378,12.996 174.928,13.546C175.478,14.096 176.12,14.371 176.853,14.371C177.62,14.371 178.27,14.096 178.803,13.546C179.337,12.996 179.603,12.354 179.603,11.621C179.603,10.854 179.337,10.204 178.803,9.671C178.27,9.138 177.62,8.871 176.853,8.871C176.12,8.871 175.478,9.138 174.928,9.671C174.378,10.204 174.103,10.854 174.103,11.621Z" style="fill:rgb(245,245,245);fill-rule:nonzero;"/>
        <path d="M198.053,25.521L200.253,22.221C199.653,21.588 198.995,21.163 198.278,20.946C197.562,20.729 196.787,20.621 195.953,20.621C195.087,20.621 194.228,20.904 193.378,21.471C192.528,22.038 191.77,22.804 191.103,23.771L191.103,21.121L187.103,21.121L187.103,44.121L191.103,44.121L191.103,30.121C191.103,28.454 191.37,27.079 191.903,25.996C192.437,24.913 193.453,24.371 194.953,24.371C195.62,24.371 196.17,24.463 196.603,24.646C197.037,24.829 197.52,25.121 198.053,25.521Z" style="fill:rgb(245,245,245);fill-rule:nonzero;"/>
        <path d="M205.603,33.621L223.703,33.621C223.737,33.421 223.753,33.221 223.753,33.021C223.753,32.821 223.753,32.621 223.753,32.421C223.753,29.988 223.303,27.896 222.403,26.146C221.503,24.396 220.237,23.038 218.603,22.071C216.97,21.104 215.07,20.621 212.903,20.621C210.937,20.621 209.162,21.021 207.578,21.821C205.995,22.621 204.703,23.738 203.703,25.171C202.703,26.604 202.037,28.271 201.703,30.171C201.637,30.571 201.587,30.971 201.553,31.371C201.52,31.771 201.503,32.188 201.503,32.621C201.503,34.921 201.978,36.979 202.928,38.796C203.878,40.613 205.178,42.038 206.828,43.071C208.478,44.104 210.337,44.621 212.403,44.621C214.403,44.621 216.07,44.379 217.403,43.896C218.737,43.413 219.87,42.729 220.803,41.846C221.737,40.963 222.587,39.938 223.353,38.771L220.103,36.721C219.337,37.954 218.362,38.954 217.178,39.721C215.995,40.488 214.57,40.871 212.903,40.871C210.803,40.871 209.103,40.246 207.803,38.996C206.503,37.746 205.77,35.954 205.603,33.621ZM205.703,30.221C205.903,28.354 206.695,26.871 208.078,25.771C209.462,24.671 211.07,24.121 212.903,24.121C214.903,24.121 216.437,24.688 217.503,25.821C218.57,26.954 219.203,28.421 219.403,30.221L205.703,30.221Z" style="fill:rgb(245,245,245);fill-rule:nonzero;"/>
        <path d="M229.903,36.021L226.753,37.971C227.62,39.838 228.887,41.413 230.553,42.696C232.22,43.979 234.12,44.621 236.253,44.621C238.487,44.621 240.362,44.071 241.878,42.971C243.395,41.871 244.153,40.088 244.153,37.621C244.153,36.321 243.853,35.238 243.253,34.371C242.653,33.504 241.87,32.771 240.903,32.171C239.937,31.571 238.903,31.054 237.803,30.621C236.97,30.254 236.112,29.913 235.228,29.596C234.345,29.279 233.603,28.896 233.003,28.446C232.403,27.996 232.103,27.404 232.103,26.671C232.103,25.771 232.453,25.146 233.153,24.796C233.853,24.446 234.703,24.271 235.703,24.271C236.637,24.271 237.578,24.563 238.528,25.146C239.478,25.729 240.22,26.404 240.753,27.171L243.953,25.121C243.253,23.854 242.153,22.788 240.653,21.921C239.153,21.054 237.487,20.621 235.653,20.621C234.42,20.621 233.237,20.838 232.103,21.271C230.97,21.704 230.037,22.379 229.303,23.296C228.57,24.213 228.203,25.388 228.203,26.821C228.203,28.254 228.537,29.388 229.203,30.221C229.87,31.054 230.712,31.713 231.728,32.196C232.745,32.679 233.77,33.138 234.803,33.571C235.703,33.904 236.545,34.271 237.328,34.671C238.112,35.071 238.753,35.538 239.253,36.071C239.753,36.604 240.003,37.271 240.003,38.071C240.003,39.038 239.645,39.746 238.928,40.196C238.212,40.646 237.32,40.871 236.253,40.871C235.153,40.871 234.02,40.413 232.853,39.496C231.687,38.579 230.703,37.421 229.903,36.021Z" style="fill:rgb(245,245,245);fill-rule:nonzero;"/>
        <path d="M251.453,32.621C251.453,31.021 251.795,29.596 252.478,28.346C253.162,27.096 254.095,26.121 255.278,25.421C256.462,24.721 257.803,24.371 259.303,24.371C260.803,24.371 262.145,24.721 263.328,25.421C264.512,26.121 265.445,27.096 266.128,28.346C266.812,29.596 267.153,31.021 267.153,32.621C267.153,34.221 266.812,35.638 266.128,36.871C265.445,38.104 264.512,39.079 263.328,39.796C262.145,40.513 260.803,40.871 259.303,40.871C257.803,40.871 256.462,40.513 255.278,39.796C254.095,39.079 253.162,38.104 252.478,36.871C251.795,35.638 251.453,34.221 251.453,32.621ZM247.403,32.621C247.403,34.921 247.928,36.979 248.978,38.796C250.028,40.613 251.453,42.038 253.253,43.071C255.053,44.104 257.07,44.621 259.303,44.621C261.57,44.621 263.595,44.104 265.378,43.071C267.162,42.038 268.578,40.613 269.628,38.796C270.678,36.979 271.203,34.921 271.203,32.621C271.203,30.288 270.678,28.221 269.628,26.421C268.578,24.621 267.162,23.204 265.378,22.171C263.595,21.138 261.57,20.621 259.303,20.621C257.07,20.621 255.053,21.138 253.253,22.171C251.453,23.204 250.028,24.621 248.978,26.421C247.928,28.221 247.403,30.288 247.403,32.621Z" style="fill:rgb(245,245,245);fill-rule:nonzero;"/>
        <path d="M308.203,29.621C308.203,26.654 307.562,24.413 306.278,22.896C304.995,21.379 303.17,20.621 300.803,20.621C299.27,20.621 297.887,21.004 296.653,21.771C295.42,22.538 294.437,23.588 293.703,24.921C292.603,22.054 290.387,20.621 287.053,20.621C285.62,20.621 284.37,20.971 283.303,21.671C282.237,22.371 281.37,23.304 280.703,24.471L280.703,21.121L276.703,21.121L276.703,44.121L280.703,44.121L280.703,30.121C280.703,28.454 281.162,27.079 282.078,25.996C282.995,24.913 284.32,24.371 286.053,24.371C287.687,24.371 288.828,24.854 289.478,25.821C290.128,26.788 290.453,28.221 290.453,30.121L290.453,44.121L294.453,44.121L294.453,30.121C294.453,28.454 294.912,27.079 295.828,25.996C296.745,24.913 298.07,24.371 299.803,24.371C301.437,24.371 302.578,24.854 303.228,25.821C303.878,26.788 304.203,28.221 304.203,30.121L304.203,44.121L308.203,44.121L308.203,29.621Z" style="fill:rgb(245,245,245);fill-rule:nonzero;"/>
        <path d="M317.803,33.621L335.903,33.621C335.937,33.421 335.953,33.221 335.953,33.021C335.953,32.821 335.953,32.621 335.953,32.421C335.953,29.988 335.503,27.896 334.603,26.146C333.703,24.396 332.437,23.038 330.803,22.071C329.17,21.104 327.27,20.621 325.103,20.621C323.137,20.621 321.362,21.021 319.778,21.821C318.195,22.621 316.903,23.738 315.903,25.171C314.903,26.604 314.237,28.271 313.903,30.171C313.837,30.571 313.787,30.971 313.753,31.371C313.72,31.771 313.703,32.188 313.703,32.621C313.703,34.921 314.178,36.979 315.128,38.796C316.078,40.613 317.378,42.038 319.028,43.071C320.678,44.104 322.537,44.621 324.603,44.621C326.603,44.621 328.27,44.379 329.603,43.896C330.937,43.413 332.07,42.729 333.003,41.846C333.937,40.963 334.787,39.938 335.553,38.771L332.303,36.721C331.537,37.954 330.562,38.954 329.378,39.721C328.195,40.488 326.77,40.871 325.103,40.871C323.003,40.871 321.303,40.246 320.003,38.996C318.703,37.746 317.97,35.954 317.803,33.621ZM317.903,30.221C318.103,28.354 318.895,26.871 320.278,25.771C321.662,24.671 323.27,24.121 325.103,24.121C327.103,24.121 328.637,24.688 329.703,25.821C330.77,26.954 331.403,28.421 331.603,30.221L317.903,30.221Z" style="fill:rgb(245,245,245);fill-rule:nonzero;"/>
    </g>
</svg>
